# 3ds Max Wavefront OBJ Exporter v0.97b - (c)2007 guruware
# File Created: 09.03.2020 15:58:06

#
# object Fireplaque
#

v  -0.0000 2.6261 54.3385
v  54.3385 2.6261 0.0000
v  0.0000 2.6261 -54.3385
v  -54.3385 2.6261 -0.0000
v  0.0000 0.0000 67.3552
v  67.3552 0.0000 -0.0000
v  62.3769 7.8802 0.0000
v  -0.0000 7.8802 62.3769
v  0.0000 0.0000 -67.3552
v  0.0000 7.8802 -62.3769
v  -67.3552 0.0000 -0.0000
v  -62.3769 7.8802 -0.0000
v  56.1197 7.8802 0.0000
v  -0.0000 7.8802 56.1197
v  0.0000 7.8802 -56.1197
v  -56.1197 7.8802 -0.0000
v  17.9693 0.0000 41.7481
v  22.3926 0.0000 44.1046
v  22.3926 5.5871 44.1046
v  17.9693 5.5871 41.7481
v  33.2489 5.5871 33.2376
v  29.7296 5.5871 29.7705
v  37.3520 0.0000 50.0757
v  41.9135 0.0000 50.6752
v  41.9135 5.5871 50.6752
v  37.3520 5.5871 50.0757
v  46.2893 5.5871 46.2993
v  43.7059 5.5871 43.7117
v  27.1110 0.0000 46.9070
v  27.1110 5.5871 46.9070
v  36.9950 5.5871 36.9898
v  32.0866 0.0000 48.9101
v  32.0866 5.5871 48.9101
v  40.4883 5.5871 40.4888
v  47.3896 0.0000 50.2849
v  47.3896 5.5871 50.2849
v  49.8413 0.0000 49.6774
v  49.8413 5.5871 49.6774
v  41.7962 0.0000 18.1484
v  41.7962 5.5871 18.1484
v  44.1158 5.5871 22.3814
v  44.1158 0.0000 22.3814
v  50.0699 0.0000 37.3578
v  50.0699 5.5871 37.3578
v  50.6651 5.5871 41.9235
v  50.6651 0.0000 41.9235
v  46.9121 5.5871 27.1059
v  46.9121 0.0000 27.1059
v  48.9096 5.5871 32.0871
v  48.9096 0.0000 32.0871
v  50.2709 5.5871 47.4040
v  50.2709 0.0000 47.4040
v  -41.7481 0.0000 17.9693
v  -44.1046 0.0000 22.3926
v  -44.1046 5.5871 22.3926
v  -41.7481 5.5871 17.9693
v  -33.2376 5.5871 33.2489
v  -29.7705 5.5871 29.7296
v  -50.0757 0.0000 37.3520
v  -50.6751 0.0000 41.9135
v  -50.6751 5.5871 41.9135
v  -50.0757 5.5871 37.3520
v  -46.2993 5.5871 46.2893
v  -43.7117 5.5871 43.7059
v  -46.9070 0.0000 27.1110
v  -46.9070 5.5871 27.1110
v  -36.9898 5.5871 36.9950
v  -48.9101 0.0000 32.0866
v  -48.9101 5.5871 32.0866
v  -40.4888 5.5871 40.4883
v  -50.2849 0.0000 47.3896
v  -50.2849 5.5871 47.3896
v  -49.6774 0.0000 49.8414
v  -49.6774 5.5871 49.8414
v  -18.1484 0.0000 41.7962
v  -18.1484 5.5871 41.7962
v  -22.3814 5.5871 44.1158
v  -22.3814 0.0000 44.1158
v  -37.3578 0.0000 50.0699
v  -37.3578 5.5871 50.0699
v  -41.9235 5.5871 50.6651
v  -41.9235 0.0000 50.6651
v  -27.1058 5.5871 46.9121
v  -27.1058 0.0000 46.9121
v  -32.0871 5.5871 48.9096
v  -32.0871 0.0000 48.9096
v  -47.4040 5.5871 50.2709
v  -47.4040 0.0000 50.2709
v  -35.3387 6.7114 24.4521
v  -29.1762 6.7114 27.7605
v  7.9333 6.7114 -52.6937
v  1.7707 6.7114 -56.0021
v  -29.1762 0.0000 27.7605
v  7.9333 0.0000 -52.6937
v  1.7707 0.0000 -56.0021
v  -35.3387 0.0000 24.4521
v  -56.7514 5.7778 -4.3836
v  -56.1720 5.7778 4.0840
v  10.4685 5.7778 -10.4685
v  21.4637 5.7778 -21.4637
v  -56.1720 -0.9336 4.0840
v  10.4685 -0.9336 -10.4685
v  21.4637 -0.9336 -21.4637
v  -56.7514 -0.9336 -4.3836
v  -24.4521 6.7114 35.3387
v  56.0021 6.7114 -1.7707
v  52.6937 6.7114 -7.9333
v  -27.7605 6.7114 29.1762
v  -27.7605 0.0000 29.1762
v  52.6937 0.0000 -7.9333
v  56.0021 0.0000 -1.7707
v  -24.4521 0.0000 35.3387
v  4.3836 5.7778 56.7514
v  -4.0840 5.7778 56.1720
v  -4.0840 -0.9336 56.1720
v  4.3836 -0.9336 56.7514
v  41.7481 0.0000 -17.9693
v  44.1046 0.0000 -22.3926
v  44.1046 5.5871 -22.3926
v  41.7481 5.5871 -17.9693
v  33.2376 5.5871 -33.2489
v  29.7705 5.5871 -29.7296
v  50.0757 0.0000 -37.3520
v  50.6751 0.0000 -41.9135
v  50.6751 5.5871 -41.9135
v  50.0757 5.5871 -37.3520
v  46.2993 5.5871 -46.2893
v  43.7117 5.5871 -43.7059
v  46.9070 0.0000 -27.1110
v  46.9070 5.5871 -27.1110
v  36.9898 5.5871 -36.9950
v  48.9101 0.0000 -32.0866
v  48.9101 5.5871 -32.0866
v  40.4888 5.5871 -40.4883
v  50.2849 0.0000 -47.3896
v  50.2849 5.5871 -47.3896
v  49.6774 0.0000 -49.8414
v  49.6774 5.5871 -49.8414
v  18.1484 0.0000 -41.7962
v  18.1484 5.5871 -41.7962
v  22.3814 5.5871 -44.1158
v  22.3814 0.0000 -44.1158
v  37.3578 0.0000 -50.0699
v  37.3578 5.5871 -50.0699
v  41.9235 5.5871 -50.6651
v  41.9235 0.0000 -50.6651
v  27.1058 5.5871 -46.9121
v  27.1058 0.0000 -46.9121
v  32.0871 5.5871 -48.9096
v  32.0871 0.0000 -48.9096
v  47.4040 5.5871 -50.2709
v  47.4040 0.0000 -50.2709
v  -17.9693 0.0000 -41.7481
v  -22.3926 0.0000 -44.1045
v  -22.3926 5.5871 -44.1045
v  -17.9693 5.5871 -41.7481
v  -33.2489 5.5871 -33.2376
v  -29.7296 5.5871 -29.7705
v  -37.3520 0.0000 -50.0757
v  -41.9135 0.0000 -50.6751
v  -41.9135 5.5871 -50.6751
v  -37.3520 5.5871 -50.0757
v  -46.2893 5.5871 -46.2993
v  -43.7059 5.5871 -43.7117
v  -27.1110 0.0000 -46.9070
v  -27.1110 5.5871 -46.9070
v  -36.9950 5.5871 -36.9898
v  -32.0866 0.0000 -48.9101
v  -32.0866 5.5871 -48.9101
v  -40.4883 5.5871 -40.4888
v  -47.3896 0.0000 -50.2849
v  -47.3896 5.5871 -50.2849
v  -49.8414 0.0000 -49.6774
v  -49.8414 5.5871 -49.6774
v  -41.7962 0.0000 -18.1484
v  -41.7962 5.5871 -18.1484
v  -44.1158 5.5871 -22.3814
v  -44.1158 0.0000 -22.3814
v  -50.0699 0.0000 -37.3578
v  -50.0699 5.5871 -37.3578
v  -50.6651 5.5871 -41.9235
v  -50.6651 0.0000 -41.9235
v  -46.9121 5.5871 -27.1058
v  -46.9121 0.0000 -27.1058
v  -48.9096 5.5871 -32.0871
v  -48.9096 0.0000 -32.0871
v  -50.2709 5.5871 -47.4040
v  -50.2709 0.0000 -47.4040
# 188 vertices

vn 0.0000 1.0000 -0.0000
vn 0.6456 0.4079 0.6456
vn 0.6456 0.4079 -0.6456
vn -0.6456 0.4079 -0.6456
vn -0.6456 0.4079 0.6456
vn -0.6876 0.2331 -0.6876
vn -0.6876 0.2331 0.6876
vn 0.6876 0.2331 0.6876
vn 0.6876 0.2331 -0.6876
vn -0.4702 0.0000 0.8826
vn -0.4906 0.0000 0.8714
vn 0.0000 1.0000 0.0000
vn -0.1734 0.0000 0.9849
vn -0.0298 0.0000 0.9996
vn -0.4434 0.0000 0.8963
vn -0.2958 0.0000 0.9552
vn 0.0711 0.0000 0.9975
vn 0.2405 0.0000 0.9707
vn 0.7267 0.0000 0.6870
vn 0.8770 0.0000 -0.4806
vn 0.8689 0.0000 -0.4950
vn 0.9850 -0.0000 -0.1723
vn 0.9996 -0.0000 -0.0289
vn 0.8970 0.0000 -0.4421
vn 0.9556 -0.0000 -0.2946
vn 0.9974 0.0000 0.0717
vn 0.9826 0.0000 0.1857
vn -0.8826 0.0000 -0.4702
vn -0.8714 0.0000 -0.4906
vn -0.0000 1.0000 0.0000
vn -0.9849 0.0000 -0.1734
vn -0.9996 0.0000 -0.0298
vn -0.8963 0.0000 -0.4434
vn -0.9552 0.0000 -0.2958
vn -0.9975 0.0000 0.0711
vn -0.9707 0.0000 0.2405
vn -0.6870 0.0000 0.7267
vn 0.4806 0.0000 0.8770
vn 0.4950 0.0000 0.8689
vn 0.1723 -0.0000 0.9850
vn 0.0289 -0.0000 0.9996
vn 0.4421 0.0000 0.8970
vn 0.2946 -0.0000 0.9556
vn -0.0717 0.0000 0.9974
vn -0.1857 0.0000 0.9826
vn 0.9081 -0.0000 0.4188
vn -0.9081 0.0000 -0.4188
vn 0.2133 0.0000 0.9770
vn -0.7071 0.0000 0.7071
vn 0.7071 0.0000 -0.7071
vn -0.2133 0.0000 -0.9770
vn -0.4188 -0.0000 -0.9081
vn 0.4188 0.0000 0.9081
vn -0.9770 0.0000 -0.2133
vn 0.9770 0.0000 0.2133
vn 0.8826 0.0000 0.4702
vn 0.8714 0.0000 0.4906
vn 0.9849 0.0000 0.1734
vn 0.9996 0.0000 0.0298
vn 0.8963 0.0000 0.4434
vn 0.9552 0.0000 0.2958
vn 0.9975 0.0000 -0.0711
vn 0.9707 0.0000 -0.2405
vn 0.6870 0.0000 -0.7267
vn -0.4806 0.0000 -0.8770
vn -0.4950 0.0000 -0.8689
vn -0.1723 -0.0000 -0.9850
vn -0.0289 -0.0000 -0.9996
vn -0.4421 0.0000 -0.8970
vn -0.2946 -0.0000 -0.9556
vn 0.0717 0.0000 -0.9974
vn 0.1857 0.0000 -0.9826
vn 0.4702 0.0000 -0.8826
vn 0.4906 0.0000 -0.8714
vn -0.0000 1.0000 -0.0000
vn 0.1734 0.0000 -0.9849
vn 0.0298 0.0000 -0.9996
vn 0.4434 0.0000 -0.8963
vn 0.2958 0.0000 -0.9552
vn -0.0711 0.0000 -0.9975
vn -0.2405 0.0000 -0.9707
vn -0.7267 0.0000 -0.6870
vn -0.8770 0.0000 0.4806
vn -0.8689 0.0000 0.4950
vn -0.9850 -0.0000 0.1723
vn -0.9996 -0.0000 0.0289
vn -0.8970 0.0000 0.4421
vn -0.9556 -0.0000 0.2946
vn -0.9974 0.0000 -0.0717
vn -0.9826 0.0000 -0.1857
# 90 vertex normals

vt 0.8105 0.1354 0.0000
vt 0.8105 0.3597 0.0000
vt 0.5863 0.3597 0.0000
vt 0.5863 0.1354 0.0000
vt 0.8447 0.1013 0.0000
vt 0.8447 0.3938 0.0000
vt 0.8281 0.3773 0.0000
vt 0.8281 0.1179 0.0000
vt 0.5522 0.3938 0.0000
vt 0.5687 0.3773 0.0000
vt 0.5522 0.1013 0.0000
vt 0.5687 0.1179 0.0000
vt 0.8179 0.3671 0.0000
vt 0.8179 0.1281 0.0000
vt 0.5789 0.3671 0.0000
vt 0.5789 0.1281 0.0000
vt 0.4191 0.3204 0.0000
vt 0.4044 0.3204 0.0000
vt 0.4044 0.3040 0.0000
vt 0.4191 0.3040 0.0000
vt 0.5346 0.3411 0.0000
vt 0.5303 0.3560 0.0000
vt 0.4853 0.3559 0.0000
vt 0.4854 0.3407 0.0000
vt 0.3568 0.3204 0.0000
vt 0.3434 0.3204 0.0000
vt 0.3434 0.3040 0.0000
vt 0.3568 0.3040 0.0000
vt 0.5117 0.3985 0.0000
vt 0.5035 0.4092 0.0000
vt 0.4854 0.4092 0.0000
vt 0.4854 0.3985 0.0000
vt 0.3883 0.3204 0.0000
vt 0.3883 0.3040 0.0000
vt 0.5263 0.3715 0.0000
vt 0.4853 0.3715 0.0000
vt 0.3726 0.3204 0.0000
vt 0.3726 0.3040 0.0000
vt 0.5202 0.3852 0.0000
vt 0.4854 0.3852 0.0000
vt 0.3273 0.3204 0.0000
vt 0.3273 0.3041 0.0000
vt 0.3199 0.3204 0.0000
vt 0.3199 0.3041 0.0000
vt 0.2218 0.3205 0.0000
vt 0.2218 0.3041 0.0000
vt 0.2359 0.3041 0.0000
vt 0.2359 0.3205 0.0000
vt 0.4364 0.3416 0.0000
vt 0.4403 0.3552 0.0000
vt 0.2835 0.3205 0.0000
vt 0.2835 0.3041 0.0000
vt 0.2970 0.3041 0.0000
vt 0.2970 0.3205 0.0000
vt 0.4590 0.3985 0.0000
vt 0.4673 0.4092 0.0000
vt 0.2520 0.3041 0.0000
vt 0.2520 0.3205 0.0000
vt 0.4443 0.3707 0.0000
vt 0.2677 0.3041 0.0000
vt 0.2677 0.3205 0.0000
vt 0.4505 0.3852 0.0000
vt 0.3131 0.3041 0.0000
vt 0.3131 0.3204 0.0000
vt 0.4913 0.4197 0.0000
vt 0.4850 0.4235 0.0000
vt 0.4794 0.4197 0.0000
vt 0.4184 0.3769 0.0000
vt 0.4037 0.3770 0.0000
vt 0.4037 0.3606 0.0000
vt 0.4184 0.3606 0.0000
vt 0.4670 0.5058 0.0000
vt 0.4712 0.4918 0.0000
vt 0.5162 0.4918 0.0000
vt 0.5161 0.5063 0.0000
vt 0.3562 0.3771 0.0000
vt 0.3427 0.3771 0.0000
vt 0.3427 0.3608 0.0000
vt 0.3561 0.3607 0.0000
vt 0.4899 0.4484 0.0000
vt 0.4981 0.4378 0.0000
vt 0.5162 0.4378 0.0000
vt 0.5162 0.4485 0.0000
vt 0.3877 0.3770 0.0000
vt 0.3876 0.3607 0.0000
vt 0.4752 0.4762 0.0000
vt 0.5162 0.4763 0.0000
vt 0.3720 0.3771 0.0000
vt 0.3719 0.3607 0.0000
vt 0.4814 0.4618 0.0000
vt 0.5162 0.4618 0.0000
vt 0.3266 0.3771 0.0000
vt 0.3266 0.3608 0.0000
vt 0.3192 0.3771 0.0000
vt 0.3192 0.3608 0.0000
vt 0.2211 0.3772 0.0000
vt 0.2211 0.3608 0.0000
vt 0.2353 0.3608 0.0000
vt 0.2353 0.3772 0.0000
vt 0.5652 0.5054 0.0000
vt 0.5612 0.4918 0.0000
vt 0.2829 0.3771 0.0000
vt 0.2828 0.3608 0.0000
vt 0.2963 0.3608 0.0000
vt 0.2963 0.3771 0.0000
vt 0.5425 0.4485 0.0000
vt 0.5343 0.4378 0.0000
vt 0.2513 0.3608 0.0000
vt 0.2513 0.3772 0.0000
vt 0.5572 0.4762 0.0000
vt 0.2670 0.3608 0.0000
vt 0.2671 0.3772 0.0000
vt 0.5510 0.4618 0.0000
vt 0.3124 0.3608 0.0000
vt 0.3124 0.3771 0.0000
vt 0.5102 0.4272 0.0000
vt 0.5166 0.4234 0.0000
vt 0.5222 0.4272 0.0000
vt 0.8779 0.0137 0.0000
vt 0.8984 0.0124 0.0000
vt 0.8984 0.2719 0.0000
vt 0.8779 0.2731 0.0000
vt 0.9180 0.0124 0.0000
vt 0.9180 0.2719 0.0000
vt 0.8583 0.2731 0.0000
vt 0.8583 0.0137 0.0000
vt 0.8767 0.2895 0.0000
vt 0.9013 0.2858 0.0000
vt 0.9013 0.4856 0.0000
vt 0.8767 0.5239 0.0000
vt 0.9209 0.2858 0.0000
vt 0.9209 0.4856 0.0000
vt 0.8570 0.5239 0.0000
vt 0.8570 0.2895 0.0000
vt 0.9699 0.0133 0.0000
vt 0.9699 0.2727 0.0000
vt 0.9495 0.2715 0.0000
vt 0.9495 0.0120 0.0000
vt 0.9298 0.0120 0.0000
vt 0.9298 0.2715 0.0000
vt 0.9896 0.2727 0.0000
vt 0.9896 0.0133 0.0000
vt 0.9729 0.2888 0.0000
vt 0.9729 0.5232 0.0000
vt 0.9483 0.4849 0.0000
vt 0.9483 0.2852 0.0000
vt 0.9286 0.2852 0.0000
vt 0.9286 0.4849 0.0000
vt 0.9925 0.5232 0.0000
vt 0.9925 0.2888 0.0000
vt 0.4214 0.2738 0.0000
vt 0.4067 0.2738 0.0000
vt 0.4067 0.2575 0.0000
vt 0.4214 0.2575 0.0000
vt 0.5340 0.1167 0.0000
vt 0.5297 0.1308 0.0000
vt 0.4848 0.1307 0.0000
vt 0.4849 0.1163 0.0000
vt 0.3591 0.2739 0.0000
vt 0.3457 0.2739 0.0000
vt 0.3456 0.2575 0.0000
vt 0.3591 0.2575 0.0000
vt 0.5111 0.1741 0.0000
vt 0.5029 0.1848 0.0000
vt 0.4848 0.1848 0.0000
vt 0.4848 0.1741 0.0000
vt 0.3906 0.2738 0.0000
vt 0.3906 0.2575 0.0000
vt 0.5258 0.1463 0.0000
vt 0.4848 0.1463 0.0000
vt 0.3749 0.2738 0.0000
vt 0.3749 0.2575 0.0000
vt 0.5196 0.1608 0.0000
vt 0.4848 0.1607 0.0000
vt 0.3296 0.2739 0.0000
vt 0.3296 0.2575 0.0000
vt 0.3222 0.2739 0.0000
vt 0.3222 0.2575 0.0000
vt 0.2241 0.2739 0.0000
vt 0.2241 0.2576 0.0000
vt 0.2382 0.2576 0.0000
vt 0.2382 0.2739 0.0000
vt 0.4358 0.1172 0.0000
vt 0.4398 0.1307 0.0000
vt 0.2858 0.2739 0.0000
vt 0.2858 0.2575 0.0000
vt 0.2993 0.2575 0.0000
vt 0.2993 0.2739 0.0000
vt 0.4585 0.1741 0.0000
vt 0.4667 0.1848 0.0000
vt 0.2543 0.2576 0.0000
vt 0.2543 0.2739 0.0000
vt 0.4438 0.1463 0.0000
vt 0.2700 0.2576 0.0000
vt 0.2700 0.2739 0.0000
vt 0.4499 0.1608 0.0000
vt 0.3154 0.2575 0.0000
vt 0.3154 0.2739 0.0000
vt 0.4908 0.1953 0.0000
vt 0.4844 0.1991 0.0000
vt 0.4788 0.1953 0.0000
vt 0.4215 0.4300 0.0000
vt 0.4068 0.4300 0.0000
vt 0.4068 0.4137 0.0000
vt 0.4215 0.4137 0.0000
vt 0.4380 0.3060 0.0000
vt 0.4423 0.2919 0.0000
vt 0.4872 0.2920 0.0000
vt 0.4871 0.3064 0.0000
vt 0.3592 0.4300 0.0000
vt 0.3458 0.4301 0.0000
vt 0.3457 0.4137 0.0000
vt 0.3592 0.4137 0.0000
vt 0.4609 0.2486 0.0000
vt 0.4691 0.2379 0.0000
vt 0.4872 0.2379 0.0000
vt 0.4872 0.2486 0.0000
vt 0.3907 0.4300 0.0000
vt 0.3907 0.4137 0.0000
vt 0.4462 0.2764 0.0000
vt 0.4872 0.2764 0.0000
vt 0.3750 0.4300 0.0000
vt 0.3750 0.4137 0.0000
vt 0.4524 0.2619 0.0000
vt 0.4872 0.2620 0.0000
vt 0.3297 0.4301 0.0000
vt 0.3297 0.4137 0.0000
vt 0.3223 0.4301 0.0000
vt 0.3223 0.4137 0.0000
vt 0.2242 0.4301 0.0000
vt 0.2242 0.4138 0.0000
vt 0.2383 0.4138 0.0000
vt 0.2383 0.4301 0.0000
vt 0.5362 0.3055 0.0000
vt 0.5322 0.2919 0.0000
vt 0.2859 0.4301 0.0000
vt 0.2859 0.4138 0.0000
vt 0.2994 0.4138 0.0000
vt 0.2994 0.4301 0.0000
vt 0.5135 0.2486 0.0000
vt 0.5053 0.2379 0.0000
vt 0.2544 0.4138 0.0000
vt 0.2544 0.4301 0.0000
vt 0.5282 0.2764 0.0000
vt 0.2701 0.4138 0.0000
vt 0.2701 0.4301 0.0000
vt 0.5221 0.2619 0.0000
vt 0.3155 0.4138 0.0000
vt 0.3155 0.4301 0.0000
vt 0.4812 0.2274 0.0000
vt 0.4876 0.2236 0.0000
vt 0.4932 0.2274 0.0000
# 252 texture coords

o Fireplaque
g Fireplaque
s 4
f 1/1/1 2/2/1 3/3/1 4/4/1 
s 8
f 5/5/2 6/6/2 7/7/2 8/8/2 
s 16
f 6/6/3 9/9/3 10/10/3 7/7/3 
s 32
f 9/9/4 11/11/4 12/12/4 10/10/4 
s 64
f 11/11/5 5/5/5 8/8/5 12/12/5 
s off
f 8/8/1 7/7/1 13/13/1 14/14/1 
f 7/7/1 10/10/1 15/15/1 13/13/1 
f 10/10/1 12/12/1 16/16/1 15/15/1 
f 12/12/1 8/8/1 14/14/1 16/16/1 
f 14/14/6 13/13/6 2/2/6 1/1/6 
f 13/13/7 15/15/7 3/3/7 2/2/7 
f 15/15/8 16/16/8 4/4/8 3/3/8 
f 16/16/9 14/14/9 1/1/9 4/4/9 
s 1
f 17/17/10 18/18/11 19/19/11 20/20/10 
s 2
f 20/21/12 19/22/12 21/23/12 22/24/12 
s 1
f 23/25/13 24/26/14 25/27/14 26/28/13 
s 2
f 26/29/1 25/30/1 27/31/1 28/32/1 
s 1
f 18/18/11 29/33/15 30/34/15 19/19/11 
s 2
f 19/22/12 30/35/1 31/36/1 21/23/12 
s 1
f 29/33/15 32/37/16 33/38/16 30/34/15 
f 32/37/16 23/25/13 26/28/13 33/38/16 
s 2
f 30/35/1 33/39/1 34/40/1 31/36/1 
f 33/39/1 26/29/1 28/32/1 34/40/1 
s 1
f 24/26/14 35/41/17 36/42/17 25/27/14 
s 4
f 35/41/18 37/43/19 38/44/19 36/42/18 
s 1
f 39/45/20 40/46/20 41/47/21 42/48/21 
s 2
f 40/49/12 22/24/12 21/23/12 41/50/12 
s 1
f 43/51/22 44/52/22 45/53/23 46/54/23 
s 2
f 44/55/1 28/32/1 27/31/1 45/56/1 
s 1
f 42/48/21 41/47/21 47/57/24 48/58/24 
s 2
f 41/50/12 21/23/12 31/36/1 47/59/1 
s 1
f 48/58/24 47/57/24 49/60/25 50/61/25 
f 50/61/25 49/60/25 44/52/22 43/51/22 
s 2
f 47/59/1 31/36/1 34/40/1 49/62/1 
f 49/62/1 34/40/1 28/32/1 44/55/1 
s 1
f 46/54/23 45/53/23 51/63/26 52/64/26 
s 4
f 52/64/27 51/63/27 38/44/19 37/43/19 
s 2
f 25/30/1 36/65/1 38/66/1 27/31/1 
f 27/31/1 38/66/1 51/67/1 45/56/1 
s 1
f 53/68/28 54/69/29 55/70/29 56/71/28 
s 2
f 56/72/30 55/73/30 57/74/30 58/75/30 
s 1
f 59/76/31 60/77/32 61/78/32 62/79/31 
s 2
f 62/80/1 61/81/1 63/82/1 64/83/1 
s 1
f 54/69/29 65/84/33 66/85/33 55/70/29 
s 2
f 55/73/30 66/86/1 67/87/1 57/74/30 
s 1
f 65/84/33 68/88/34 69/89/34 66/85/33 
f 68/88/34 59/76/31 62/79/31 69/89/34 
s 2
f 66/86/1 69/90/1 70/91/1 67/87/1 
f 69/90/1 62/80/1 64/83/1 70/91/1 
s 1
f 60/77/32 71/92/35 72/93/35 61/78/32 
s 4
f 71/92/36 73/94/37 74/95/37 72/93/36 
s 1
f 75/96/38 76/97/38 77/98/39 78/99/39 
s 2
f 76/100/30 58/75/30 57/74/30 77/101/30 
s 1
f 79/102/40 80/103/40 81/104/41 82/105/41 
s 2
f 80/106/1 64/83/1 63/82/1 81/107/1 
s 1
f 78/99/39 77/98/39 83/108/42 84/109/42 
s 2
f 77/101/30 57/74/30 67/87/1 83/110/1 
s 1
f 84/109/42 83/108/42 85/111/43 86/112/43 
f 86/112/43 85/111/43 80/103/40 79/102/40 
s 2
f 83/110/1 67/87/1 70/91/1 85/113/1 
f 85/113/1 70/91/1 64/83/1 80/106/1 
s 1
f 82/105/41 81/104/41 87/114/44 88/115/44 
s 4
f 88/115/45 87/114/45 74/95/37 73/94/37 
s 2
f 61/81/1 72/116/1 74/117/1 63/82/1 
f 63/82/1 74/117/1 87/118/1 81/107/1 
s 4
f 89/119/1 90/120/1 91/121/1 92/122/1 
s 16
f 93/123/46 94/124/46 91/121/46 90/120/46 
s 64
f 95/125/47 96/126/47 89/119/47 92/122/47 
s 4
f 97/127/1 98/128/1 99/129/1 100/130/1 
s 16
f 101/131/48 102/132/49 99/129/49 98/128/48 
s 64
f 103/133/50 104/134/51 97/127/51 100/130/50 
s 4
f 105/135/1 106/136/1 107/137/1 108/138/1 
s 16
f 109/139/52 108/138/52 107/137/52 110/140/52 
s 64
f 111/141/53 106/136/53 105/135/53 112/142/53 
s 4
f 113/143/1 100/144/1 99/145/1 114/146/1 
s 16
f 115/147/54 114/146/54 99/145/49 102/148/49 
s 64
f 103/149/50 100/144/50 113/143/55 116/150/55 
s 1
f 117/151/56 118/152/57 119/153/57 120/154/56 
s 2
f 120/155/1 119/156/1 121/157/1 122/158/1 
s 1
f 123/159/58 124/160/59 125/161/59 126/162/58 
s 2
f 126/163/1 125/164/1 127/165/1 128/166/1 
s 1
f 118/152/57 129/167/60 130/168/60 119/153/57 
s 2
f 119/156/1 130/169/1 131/170/1 121/157/1 
s 1
f 129/167/60 132/171/61 133/172/61 130/168/60 
f 132/171/61 123/159/58 126/162/58 133/172/61 
s 2
f 130/169/1 133/173/1 134/174/1 131/170/1 
f 133/173/1 126/163/1 128/166/1 134/174/1 
s 1
f 124/160/59 135/175/62 136/176/62 125/161/59 
s 4
f 135/175/63 137/177/64 138/178/64 136/176/63 
s 1
f 139/179/65 140/180/65 141/181/66 142/182/66 
s 2
f 140/183/1 122/158/1 121/157/1 141/184/1 
s 1
f 143/185/67 144/186/67 145/187/68 146/188/68 
s 2
f 144/189/1 128/166/1 127/165/1 145/190/1 
s 1
f 142/182/66 141/181/66 147/191/69 148/192/69 
s 2
f 141/184/1 121/157/1 131/170/1 147/193/1 
s 1
f 148/192/69 147/191/69 149/194/70 150/195/70 
f 150/195/70 149/194/70 144/186/67 143/185/67 
s 2
f 147/193/1 131/170/1 134/174/1 149/196/1 
f 149/196/1 134/174/1 128/166/1 144/189/1 
s 1
f 146/188/68 145/187/68 151/197/71 152/198/71 
s 4
f 152/198/72 151/197/72 138/178/64 137/177/64 
s 2
f 125/164/1 136/199/1 138/200/1 127/165/1 
f 127/165/1 138/200/1 151/201/1 145/190/1 
s 1
f 153/202/73 154/203/74 155/204/74 156/205/73 
s 2
f 156/206/75 155/207/75 157/208/75 158/209/75 
s 1
f 159/210/76 160/211/77 161/212/77 162/213/76 
s 2
f 162/214/1 161/215/1 163/216/1 164/217/1 
s 1
f 154/203/74 165/218/78 166/219/78 155/204/74 
s 2
f 155/207/75 166/220/1 167/221/1 157/208/75 
s 1
f 165/218/78 168/222/79 169/223/79 166/219/78 
f 168/222/79 159/210/76 162/213/76 169/223/79 
s 2
f 166/220/1 169/224/1 170/225/1 167/221/1 
f 169/224/1 162/214/1 164/217/1 170/225/1 
s 1
f 160/211/77 171/226/80 172/227/80 161/212/77 
s 4
f 171/226/81 173/228/82 174/229/82 172/227/81 
s 1
f 175/230/83 176/231/83 177/232/84 178/233/84 
s 2
f 176/234/75 158/209/75 157/208/75 177/235/75 
s 1
f 179/236/85 180/237/85 181/238/86 182/239/86 
s 2
f 180/240/1 164/217/1 163/216/1 181/241/1 
s 1
f 178/233/84 177/232/84 183/242/87 184/243/87 
s 2
f 177/235/75 157/208/75 167/221/1 183/244/1 
s 1
f 184/243/87 183/242/87 185/245/88 186/246/88 
f 186/246/88 185/245/88 180/237/85 179/236/85 
s 2
f 183/244/1 167/221/1 170/225/1 185/247/1 
f 185/247/1 170/225/1 164/217/1 180/240/1 
s 1
f 182/239/86 181/238/86 187/248/89 188/249/89 
s 4
f 188/249/90 187/248/90 174/229/82 173/228/82 
s 2
f 161/215/1 172/250/1 174/251/1 163/216/1 
f 163/216/1 174/251/1 187/252/1 181/241/1 
# 129 polygons

